<?xml version="1.0" encoding="UTF-8"?>
<svg version="1.1" xmlns="http://www.w3.org/2000/svg" width="32" height="32">
<path d="M0 0 C9.03448276 -0.62068966 9.03448276 -0.62068966 12.625 1.6875 C14.21961817 4.36935783 14.34098943 5.93109509 14 9 C14.99 9.33 15.98 9.66 17 10 C16.67 11.32 16.34 12.64 16 14 C15.34 14 14.68 14 14 14 C13.67 14.99 13.34 15.98 13 17 C8.71 17 4.42 17 0 17 C-0.33 15.68 -0.66 14.36 -1 13 C-2.32 13 -3.64 13 -5 13 C-5 10.36 -5 7.72 -5 5 C-3.68 5 -2.36 5 -1 5 C-0.67 3.35 -0.34 1.7 0 0 Z M2 3 C2 5.31 2 7.62 2 10 C2.66 9.67 3.32 9.34 4 9 C4 7.68 4 6.36 4 5 C5.32 5 6.64 5 8 5 C8 4.34 8 3.68 8 3 C6.02 3 4.04 3 2 3 Z M10 6 C10 7.32 10 8.64 10 10 C10.66 10 11.32 10 12 10 C12 8.68 12 7.36 12 6 C11.34 6 10.68 6 10 6 Z M2 13 C2 13.66 2 14.32 2 15 C5.3 15 8.6 15 12 15 C12 14.34 12 13.68 12 13 C8.33694766 12.25073929 5.57644848 11.7619986 2 13 Z " fill="#121313" transform="translate(10,1)"/>
<path d="M0 0 C6.6 0 13.2 0 20 0 C19.67 1.32 19.34 2.64 19 4 C19.99 4.33 20.98 4.66 22 5 C22 6.65 22 8.3 22 10 C14.08 10 6.16 10 -2 10 C-2 8.35 -2 6.7 -2 5 C-0.35 5 1.3 5 3 5 C2.01 4.67 1.02 4.34 0 4 C0 2.68 0 1.36 0 0 Z " fill="#121212" transform="translate(6,20)"/>
</svg>
